<svg width="24" height="24" viewBox="0 0 24 24" fill="none" xmlns="http://www.w3.org/2000/svg">
  <path d="M21.3103 2.69058C21.1195 2.49889 20.8676 2.37973 20.599 2.35107C20.3303 2.32242 20.0593 2.38589 19.8303 2.53058L2.83025 12.5306C2.5857 12.6839 2.39324 12.9135 2.28966 13.1848C2.18608 13.4561 2.17673 13.7536 2.26325 14.0306C2.35296 14.3038 2.5322 14.536 2.77289 14.692C3.01359 14.848 3.29891 14.9188 3.58025 14.8936L9.15025 14.2936L11.0403 19.7406C11.1222 19.9836 11.2772 20.1954 11.4827 20.3451C11.6881 20.4949 11.9333 20.5757 12.1862 20.5766C12.439 20.5735 12.6832 20.4905 12.8872 20.3392C13.0911 20.1879 13.2444 19.975 13.3242 19.7316L21.4803 3.69058C21.6214 3.46048 21.6818 3.18992 21.6517 2.92274C21.6217 2.65555 21.5028 2.40712 21.3133 2.21758" fill="white"/>
</svg> 